<svg xmlns="http://www.w3.org/2000/svg">
    <defs>
        <symbol id="thumbsUp" xmlns="http://www.w3.org/2000/svg" viewBox="0 0 24 24"><path fill-rule="evenodd" d="M7.5 8l3.15-4.2a4.5 4.5 0 013.6-1.8 2.483 2.483 0 012.449 2.89L16.18 8h2.424a3 3 0 012.951 3.537l-.974 5.357A5 5 0 0115.661 21h-6.55c-.148 0-.294-.033-.428-.096l-.824-.39A1 1 0 017 21H3a1 1 0 01-1-1V9a1 1 0 011-1h4.5zm.5 2v8.367L9.336 19h6.326a3 3 0 002.951-2.463l.974-5.358A1 1 0 0018.603 10H15a1 1 0 01-.986-1.164l.712-4.274A.482.482 0 0014.25 4a2.5 2.5 0 00-2 1L8.8 9.6a1 1 0 01-.8.4zm-2 0H4v9h2v-9z" clip-rule="evenodd"></path></symbol>
        <symbol id="thumbsDown" xmlns="http://www.w3.org/2000/svg" viewBox="0 0 24 24"><path fill-rule="evenodd" d="M7.5 16l3.15 4.2a4.5 4.5 0 003.6 1.8 2.482 2.482 0 002.449-2.89L16.18 16h2.424a3 3 0 002.951-3.537l-.974-5.357A5 5 0 0015.661 3h-6.55a1 1 0 00-.428.096l-.824.39A1 1 0 007 3H3a1 1 0 00-1 1v11a1 1 0 001 1h4.5zm.5-2V5.633L9.336 5h6.326a3 3 0 012.951 2.463l.974 5.358A1 1 0 0118.603 14H15a1 1 0 00-.986 1.164l.712 4.274a.482.482 0 01-.476.562 2.5 2.5 0 01-2-1L8.8 14.4A1 1 0 008 14zm-2 0H4V5h2v9z" clip-rule="evenodd"></path></symbol>
        <symbol id="dotOutline" xmlns="http://www.w3.org/2000/svg" viewBox="0 0 16 16"><circle cx="8" cy="8" r="2"></circle></symbol>
        <symbol id="removeSimple" xmlns="http://www.w3.org/2000/svg" viewBox="0 0 24 24"><path d="M20 11v2H4v-2h16z"></path></symbol>
        <symbol id="seller" xmlns="http://www.w3.org/2000/svg" viewBox="0 0 24 24"><path fill-rule="evenodd" d="M19.5 3h-15a1 1 0 00-.959.715l-1.5 5.053A1 1 0 002 9.053V12a1 1 0 001 1h.006l.038 7.006A1 1 0 004.048 21l9.956-.035a1 1 0 00.996-1V13h4v8h2v-8a1 1 0 001-1V9.053a1 1 0 00-.041-.285l-1.5-5.053A1 1 0 0019.5 3zm.5 8V9.198L18.754 5H5.246L4 9.198V11h16zm-7 2H5.006l.033 5.997L13 18.968V13z" clip-rule="evenodd"></path></symbol>
        <symbol id="moreVert" xmlns="http://www.w3.org/2000/svg" viewBox="0 0 24 24"><path fill-rule="evenodd" d="M12 8c1.1 0 2-.9 2-2s-.9-2-2-2-2 .9-2 2 .9 2 2 2zm-2 4c0 1.1.9 2 2 2s2-.9 2-2-.9-2-2-2-2 .9-2 2zm2 8c-1.1 0-2-.9-2-2s.9-2 2-2 2 .9 2 2-.9 2-2 2z" clip-rule="evenodd"></path></symbol>
        <symbol id="flag" xmlns="http://www.w3.org/2000/svg" viewBox="0 0 24 24"><path fill-rule="evenodd" d="M12 2h7a1 1 0 011 1v19h-2v-8h-4v1a1 1 0 01-1 1H5a1 1 0 01-.958-1.287L5.456 10 4.042 5.287A1 1 0 015 4h6V3a1 1 0 011-1zm6 10V4h-5v8h5zM6.344 6l1.114 3.713a1 1 0 010 .574L6.344 14H12a1 1 0 01-1-1V6H6.344z" clip-rule="evenodd"></path></symbol>
        <symbol id="addSimple" xmlns="http://www.w3.org/2000/svg" viewBox="0 0 24 24"><path fill-rule="evenodd" d="M13 4h-2v7H4v2h7v7h2v-7h7v-2h-7V4z" clip-rule="evenodd"></path></symbol>
        <symbol id="close" xmlns="http://www.w3.org/2000/svg" viewBox="0 0 24 24"><path fill-rule="evenodd" d="M18.364 7.05L16.95 5.636 12 10.586l-4.95-4.95L5.636 7.05l4.95 4.95-4.95 4.95 1.414 1.414 4.95-4.95 4.95 4.95 1.414-1.414-4.95-4.95 4.95-4.95z" clip-rule="evenodd"></path></symbol>
        <symbol id="delete" xmlns="http://www.w3.org/2000/svg" viewBox="0 0 24 24"><path fill-rule="evenodd" d="M8 2v2h8V2H8zM4 7V5h16v2H4zm13 1h2v11a3 3 0 01-3 3H8a3 3 0 01-3-3V8h2v11a1 1 0 001 1h8a1 1 0 001-1V8zm-6 0H9v10h2V8zm2 0h2v10h-2V8z" clip-rule="evenodd"></path></symbol>
        <symbol id="question" xmlns="http://www.w3.org/2000/svg" viewBox="0 0 24 24"><path fill-rule="evenodd" d="M8 2h8a6 6 0 016 6v8a6 6 0 01-6 6H8a6 6 0 01-6-6V8a6 6 0 016-6zm0 2a4 4 0 00-4 4v8a4 4 0 004 4h8a4 4 0 004-4V8a4 4 0 00-4-4H8zm2 6H8V9a3 3 0 013-3h2a3 3 0 013 3v.93a3 3 0 01-1.336 2.496l-1.219.812a1 1 0 00-.445.832V15h-2v-.93a3 3 0 011.336-2.496l1.219-.812A1 1 0 0014 9.93V9a1 1 0 00-1-1h-2a1 1 0 00-1 1v1zm1 6h2v2h-2v-2z" clip-rule="evenodd"></path></symbol>
        <symbol id="chevronLeft" xmlns="http://www.w3.org/2000/svg" viewBox="0 0 24 24"><path d="M11.414 12l4.293 4.293-1.414 1.414-5-5a1 1 0 010-1.414l5-5 1.414 1.414L11.414 12z"></path></symbol>
        <symbol id="chevronRight" xmlns="http://www.w3.org/2000/svg" viewBox="0 0 24 24"><path d="M12.583 12L8.29 16.293l1.414 1.414 5-5a1 1 0 000-1.414l-5-5L8.29 7.707 12.583 12z"></path></symbol>
        <symbol id="done" xmlns="http://www.w3.org/2000/svg" viewBox="0 0 24 24"><path d="M9.5 15.586l9.293-9.293 1.414 1.414-10 10a1 1 0 01-1.414 0l-4.5-4.5 1.414-1.414L9.5 15.586z"></path></symbol>
        <symbol id="soruit" xmlns="http://www.w3.org/2000/svg" viewBox="0 0 24 24"><path fill-rule="evenodd" d="M6 15.793L3.707 13.5l-1.414 1.414 4 4a1 1 0 001.414 0l4-4-1.414-1.414L8 15.793V5H6v10.793zM22 5H10v2h12V5zm0 4H12v2h10V9zm0 4h-8v2h8v-2zm-6 4h6v2h-6v-2z" clip-rule="evenodd"></path></symbol>
        <symbol id="filter" xmlns="http://www.w3.org/2000/svg" viewBox="0 0 24 24"><path fill-rule="evenodd" d="M5.17 6a3.001 3.001 0 005.66 0H22V4H10.83a3.001 3.001 0 00-5.66 0H2v2h3.17zM9 5a1 1 0 11-2 0 1 1 0 012 0zm7 10a3.001 3.001 0 01-2.83-2H2v-2h11.17a3.001 3.001 0 015.66 0H22v2h-3.17A3.001 3.001 0 0116 15zm1-3a1 1 0 11-2 0 1 1 0 012 0zM5.17 18H2v2h3.17a3.001 3.001 0 005.66 0H22v-2H10.83a3.001 3.001 0 00-5.66 0zM9 19a1 1 0 11-2 0 1 1 0 012 0z" clip-rule="evenodd"></path></symbol>
        <symbol id="arrowRight" xmlns="http://www.w3.org/2000/svg" viewBox="0 0 24 24"><path fill-rule="evenodd" d="M12.707 19.707l-1.414-1.414L16.586 13H4v-2h12.586l-5.293-5.293 1.414-1.414 7 7a1 1 0 010 1.414l-7 7z" clip-rule="evenodd"></path></symbol>
        <symbol id="infoOutline" xmlns="http://www.w3.org/2000/svg" viewBox="0 0 24 24"><path fill-rule="evenodd" d="M2 12c0 5.523 4.477 10 10 10s10-4.477 10-10S17.523 2 12 2 2 6.477 2 12zm18 0a8 8 0 11-16 0 8 8 0 0116 0zm-10-2h3v7h-2v-5h-1v-2zm3-2a1 1 0 10-2 0 1 1 0 002 0z" clip-rule="evenodd"></path></symbol>
        <symbol id="favoriteOff" xmlns="http://www.w3.org/2000/svg" viewBox="0 0 24 24"><path fill-rule="evenodd" d="M7.5 3a6 6 0 00-3.844 10.607l6.982 6.492a2 2 0 002.724 0l6.993-6.503C21.685 12.504 22.5 10.818 22.5 9A6 6 0 0012 5.03 5.995 5.995 0 007.5 3zm-2.502 9.124l-.044-.039a4 4 0 116.147-4.83 1 1 0 001.799 0A4 4 0 0120.5 9a3.99 3.99 0 01-1.461 3.091L12 18.634l-7.002-6.51z" clip-rule="evenodd"></path></symbol>
        <symbol id="share" xmlns="http://www.w3.org/2000/svg" viewBox="0 0 24 24"><path d="M15.917 14.16l-6.94 3.47a3 3 0 11-.895-1.789l6.94-3.47a3.021 3.021 0 010-.742l-6.94-3.47a3 3 0 11.895-1.789l6.94 3.47a3 3 0 110 4.319z"></path></symbol>
        <symbol id="notificationActiveOutline" xmlns="http://www.w3.org/2000/svg" viewBox="0 0 24 24"><path fill-rule="evenodd" d="M3.667 13.886A2.001 2.001 0 005 12V9a7 7 0 0114 0v3c0 .854.54 1.606 1.333 1.886a1 1 0 01.667.943V19a1 1 0 01-1 1H4a1 1 0 01-1-1v-4.17a1 1 0 01.667-.944zM19 18v-2.535A4 4 0 0117 12V9A5 5 0 007 9v3a4 4 0 01-2 3.465V18h14zm-7 5c-1.385 0-2.563-.835-3-2h6c-.437 1.165-1.615 2-3 2zm6.02-19.262l1.504-1.318a9.964 9.964 0 012.477 6.589h-2a7.964 7.964 0 00-1.981-5.27zM4 9.008c0-1.966.711-3.82 1.981-5.27L4.477 2.42A9.964 9.964 0 002 9.009h2z" clip-rule="evenodd"></path></symbol>
        <symbol id="priceChart" xmlns="http://www.w3.org/2000/svg" viewBox="0 0 24 24"><path fill-rule="evenodd" d="M4 18V4H2v15a1 1 0 001 1h19v-2H4zM22 8a2 2 0 10-3.933.517l-2.55 2.55a2.003 2.003 0 00-1.034 0l-1.55-1.55A2.003 2.003 0 0011 7a2 2 0 00-1.933 2.517l-1.55 1.55A2.003 2.003 0 005 13a2 2 0 103.933-.517l1.55-1.55a2.003 2.003 0 001.035 0l1.55 1.55A2.003 2.003 0 0015 15a2 2 0 001.933-2.517l2.55-2.55A2.002 2.002 0 0022 8z" clip-rule="evenodd"></path></symbol>
        <symbol id="compare" xmlns="http://www.w3.org/2000/svg" viewBox="0 0 24 24"><path fill-rule="evenodd" d="M13 2h-2v2H4a2 2 0 00-2 2v12a2 2 0 002 2h7v2h2V2zm1 16v2h6a2 2 0 002-2V6a2 2 0 00-2-2h-6v2h6v12h-6z" clip-rule="evenodd"></path></symbol>
        <symbol id="list" xmlns="http://www.w3.org/2000/svg" viewBox="0 0 24 24"><path fill-rule="evenodd" d="M15 6v2H5V6h10zm0 7v-2H5v2h10zm0 5v-2H5v2h10zm5-5v-2h-3v2h3zm0 3v2h-3v-2h3zm0-8V6h-3v2h3z" clip-rule="evenodd"></path></symbol>
        <symbol id="cartOff" xmlns="http://www.w3.org/2000/svg" viewBox="0 0 24 24"><path fill-rule="evenodd" d="M20 4h2V2h-3a1 1 0 00-1 1v1H3a1 1 0 00-.995 1.1l1 10A1 1 0 004 16h15a1 1 0 001-1V4zm-2 17a2 2 0 110-4 2 2 0 010 4zM5 21a2 2 0 110-4 2 2 0 010 4zm13-7V6H4.105l.8 8H18z" clip-rule="evenodd"></path></symbol>
        <symbol id="registerationSignIn" xmlns="http://www.w3.org/2000/svg" viewBox="0 0 24 24"><path fill-rule="evenodd" d="M16 15h-2v2a2 2 0 01-2 2H6a2 2 0 01-2-2V7a2 2 0 012-2h6a2 2 0 012 2v2h2V7a4 4 0 00-4-4H6a4 4 0 00-4 4v10a4 4 0 004 4h6a4 4 0 004-4v-2zm6-4H9.414l2.293-2.293-1.414-1.414-4 4a1 1 0 000 1.414l4 4 1.414-1.414L9.414 13H22v-2z" clip-rule="evenodd"></path></symbol>
        <symbol id="autoDetectOn" xmlns="http://www.w3.org/2000/svg" viewBox="0 0 24 24"><path fill-rule="evenodd" d="M20.94 11A8.994 8.994 0 0013 3.06V1h-2v2.06A8.994 8.994 0 003.06 11H1v2h2.06A8.994 8.994 0 0011 20.94V23h2v-2.06A8.994 8.994 0 0020.94 13H23v-2h-2.06zM12 8c-2.21 0-4 1.79-4 4s1.79 4 4 4 4-1.79 4-4-1.79-4-4-4zm-7 4c0 3.87 3.13 7 7 7s7-3.13 7-7-3.13-7-7-7-7 3.13-7 7z" clip-rule="evenodd"></path></symbol>
        <symbol id="pin" xmlns="http://www.w3.org/2000/svg" viewBox="0 0 24 24"><path fill-rule="evenodd" d="M4 9.611C4 5.391 7.59 2 12 2s8 3.39 8 7.611c0 2.818-1.425 5.518-3.768 8.034a23.496 23.496 0 01-2.514 2.322c-.517.413-.923.706-1.166.867L12 21.2l-.552-.366c-.243-.16-.65-.454-1.166-.867a23.499 23.499 0 01-2.514-2.322C5.425 15.129 4 12.428 4 9.61zm8.47 8.794c.784-.627 1.569-1.34 2.298-2.124C16.8 14.101 18 11.827 18 9.611 18 6.521 15.33 4 12 4S6 6.522 6 9.611c0 2.215 1.2 4.49 3.232 6.67A21.536 21.536 0 0012 18.769c.148-.111.305-.233.47-.364zM12 14a4.001 4.001 0 010-8 4.001 4.001 0 010 8zm0-2a2.001 2.001 0 000-4 2.001 2.001 0 000 4z" clip-rule="evenodd"></path></symbol>
        <symbol id="fresh" xmlns="http://www.w3.org/2000/svg" viewBox="0 0 24 24"><path fill-rule="evenodd" d="M18 4a2 2 0 00-2-2h-3a2 2 0 00-2 2v1.535a4.007 4.007 0 00-1.874 2.467A5.108 5.108 0 009 8l-.217.005A5 5 0 004 13H3a1 1 0 00-.99 1.141l1 7A1 1 0 004 22h16a1 1 0 00.99-.859l1-7A1 1 0 0021 13h-1V9l-.007-.232a4 4 0 00-1.992-3.232L18 4zM4.867 20l-.714-5h15.694l-.714 5H4.867zM16 7h-3a2 2 0 00-1.924 1.45 5.003 5.003 0 012.919 4.318L14 13h4V9a2 2 0 00-1.85-1.995L16 7zm-9.995 5.824A3 3 0 0112 13H6l.005-.176zM16 4h-3v1h3V4zm-1 14v-2H9v2h6z" clip-rule="evenodd"></path></symbol>
        <symbol id="searchTrend" xmlns="http://www.w3.org/2000/svg" viewBox="0 0 24 24"><path fill-rule="evenodd" d="M12.015 9.105c.222.397.41.73.466.842.361.724.519 1.31.519 2.053a2 2 0 01-4 0l.003-4.557c0-.953-1.206-1.367-1.79-.613C5.087 9.572 4 11.906 4 13.889 4 18.365 7.578 22 12 22c4.422 0 8-3.635 8-8.111 0-2.968-2.45-6.78-7.295-11.598a1 1 0 00-1.6.262c-.807 1.615-.807 3.28 0 4.894.178.356.582 1.076.91 1.658zM7 12a4 4 0 108 0c0-1.078-.238-1.962-.73-2.947-.079-.156-.31-.569-.566-1.024a50.532 50.532 0 01-.81-1.476c-.273-.546-.404-1.079-.393-1.612C16.18 8.811 18 11.834 18 13.889 18 17.267 15.31 20 12 20s-6-2.733-6-6.111c0-.87.33-1.925 1-3.154V12z" clip-rule="evenodd"></path></symbol>
        <symbol id="discount" xmlns="http://www.w3.org/2000/svg" viewBox="0 0 24 24"><path fill-rule="evenodd" d="M22 4a1 1 0 011 1v14a1 1 0 01-1 1H6a1 1 0 01-.707-.293l-4-4A1 1 0 011 15V9a1 1 0 01.293-.707l4-4A1 1 0 016 4h16zm-1 2H6.414L3 9.414v5.172L6.414 18H21V6zm-6 3.5a1.5 1.5 0 11-3 0 1.5 1.5 0 013 0zm2.5 6.5a1.5 1.5 0 100-3 1.5 1.5 0 000 3zM10 12a3 3 0 11-6 0 3 3 0 016 0zm-4 0a1 1 0 102 0 1 1 0 00-2 0zm12.848-3.47l-5 8-1.696-1.06 5-8 1.696 1.06z" clip-rule="evenodd"></path></symbol>
        <symbol id="amazing" xmlns="http://www.w3.org/2000/svg" viewBox="0 0 24 24"><path fill-rule="evenodd" d="M15.112 2.234c.687.231 1.153.525 1.895 1.171l.536.474.109.09.142.104.653.42c.837.54 1.244.9 1.663 1.495.381.542.579 1 .794 1.841l.226.941.053.185.049.142.285.719c.36.914.483 1.457.483 2.184 0 .728-.124 1.27-.483 2.184l-.246.615-.08.22-.06.211-.227.941c-.215.842-.413 1.3-.795 1.843-.416.59-.822.95-1.646 1.483l-.67.431-.14.104-.176.147-.471.417c-.742.646-1.208.94-1.898 1.172-.688.23-1.206.272-2.224.199l-.687-.052-.197-.006-.086.001-.212.01-.586.047c-1.018.073-1.537.03-2.23-.201-.686-.231-1.152-.524-1.893-1.17l-.594-.522-.144-.111-.103-.072-.619-.395c-.821-.532-1.229-.894-1.643-1.483-.417-.593-.614-1.085-.855-2.085l-.146-.621-.061-.225-.06-.179-.285-.719C2.123 13.27 2 12.729 2 12c0-.727.124-1.27.483-2.184l.285-.717.082-.258.039-.147.146-.621.118-.46c.195-.707.39-1.131.737-1.624.414-.59.82-.95 1.643-1.483l.552-.352.153-.104.16-.123.124-.105.47-.417c.743-.646 1.209-.94 1.897-1.171.69-.232 1.209-.274 2.227-.2l.7.052.228.005.275-.013.564-.044c1.02-.074 1.539-.031 2.229.2zm-1.931 1.784l-.89.065c-.105.006-.2.008-.291.008l-.275-.007-.156-.009-.563-.044-.385-.024c-.514-.024-.767.012-1.094.122l-.108.039c-.35.132-.62.313-1.138.767l-.55.486-.155.125-.142.107-.23.158-.72.462c-.517.343-.733.545-.958.866-.23.326-.347.596-.51 1.247l-.193.815-.05.19-.05.17-.094.271-.345.87C4.061 11.287 4 11.594 4 12l.002.12c.012.35.082.65.282 1.18l.37.934.07.21.074.257.219.914c.162.65.28.92.51 1.247.247.352.485.564 1.121.973l.559.356c.118.077.204.138.296.207l.073.056.241.2.464.411c.569.5.839.67 1.241.805.404.135.694.159 1.484.1l.306-.025.555-.034.133-.002c.09 0 .186.003.291.008l.166.01.536.043c.79.059 1.08.035 1.478-.098.407-.138.678-.308 1.247-.807l.387-.344.212-.182.181-.142.186-.133.108-.073.721-.462c.518-.342.735-.546.96-.866.25-.357.367-.644.554-1.431l.091-.391c.032-.138.059-.245.084-.34l.075-.26.094-.273.345-.869c.223-.587.284-.894.284-1.299 0-.405-.061-.712-.284-1.299l-.37-.934-.095-.293-.075-.274-.149-.631-.098-.39c-.109-.402-.203-.64-.34-.865l-.115-.175c-.226-.32-.441-.523-.96-.866l-.624-.4a7.664 7.664 0 01-.255-.17l-.212-.157-.155-.126-.697-.613c-.42-.357-.669-.516-.977-.634l-.218-.074c-.322-.098-.603-.12-1.195-.081zM16 15.5a1.5 1.5 0 10-3 0 1.5 1.5 0 003 0zm-1.8-8.1l1.6 1.2-6 8-1.6-1.2 6-8zM11 8.5a1.5 1.5 0 10-3 0 1.5 1.5 0 003 0z" clip-rule="evenodd"></path></symbol>
        <symbol id="expandMore" xmlns="http://www.w3.org/2000/svg" viewBox="0 0 24 24"><path d="M7.707 9.29l-1.414 1.414 5 5a1 1 0 001.414 0l5-5-1.414-1.414L12 13.583 7.707 9.29z"></path></symbol>
        <symbol id="askQuestion" xmlns="http://www.w3.org/2000/svg" viewBox="0 0 24 24"><path fill-rule="evenodd" d="M9.998 20.8l1.17 1.755a1 1 0 001.664 0l1.17-1.756A10.004 10.004 0 0022 11c0-5.523-4.477-10-10-10S2 5.477 2 11c0 4.79 3.389 8.863 7.998 9.8zm3.253-1.897a1 1 0 00-.677.433l-.574.861-.574-.86a1 1 0 00-.677-.434A8.002 8.002 0 014 11a8 8 0 1116 0 8.002 8.002 0 01-6.749 7.903zM10 9H8V8a3 3 0 013-3h2a3 3 0 013 3v.93a3 3 0 01-1.336 2.496l-1.219.812a1 1 0 00-.445.832V14h-2v-.93a3 3 0 011.336-2.496l1.219-.812A1 1 0 0014 8.93V8a1 1 0 00-1-1h-2a1 1 0 00-1 1v1zm3 6h-2v2h2v-2z" clip-rule="evenodd"></path></symbol>
        <symbol id="electronic" xmlns="http://www.w3.org/2000/svg" viewBox="0 0 24 24"><path fill-rule="evenodd" d="M4 5a1 1 0 011-1h14a1 1 0 011 1v8.723l2.858 4.762A1 1 0 0122 20H2a1 1 0 01-.857-1.515L4 13.723V5zm2 8h12V6H6v7zm-.434 2l-1.8 3h16.468l-1.8-3H5.566z" clip-rule="evenodd"></path></symbol>
        <symbol id="mobile" xmlns="http://www.w3.org/2000/svg" viewBox="0 0 24 24"><path fill-rule="evenodd" d="M7 1h10a3 3 0 013 3v16a3 3 0 01-3 3H7a3 3 0 01-3-3V4a3 3 0 013-3zm0 2a1 1 0 00-1 1v16a1 1 0 001 1h10a1 1 0 001-1V4a1 1 0 00-1-1H7zm5 17a2 2 0 100-4 2 2 0 000 4z" clip-rule="evenodd"></path></symbol>
        <symbol id="tools" xmlns="http://www.w3.org/2000/svg" viewBox="0 0 24 24"><path fill-rule="evenodd" d="M21.207 16.793l-6.833-6.834A6.502 6.502 0 004.975 2.42 1 1 0 004.755 4l3.036 3.036a.5.5 0 11-.707.707L4.05 4.708a1 1 0 00-1.58.219 6.502 6.502 0 007.464 9.42l6.86 6.86a3.121 3.121 0 104.414-4.414zm-11.38-4.52A4.5 4.5 0 013.73 7.217l1.94 1.94a2.5 2.5 0 003.536-3.536l-1.94-1.94a4.503 4.503 0 015.032 6.152 1 1 0 00.215 1.093l7.28 7.28a1.121 1.121 0 01-1.586 1.586l-7.3-7.3a1 1 0 00-1.08-.22z" clip-rule="evenodd"></path></symbol>
        <symbol id="fashion" xmlns="http://www.w3.org/2000/svg" viewBox="0 0 24 24"><path fill-rule="evenodd" d="M4.317 12.449L6 11.887V20a1 1 0 001 1h10a1 1 0 001-1v-8.113l1.684.562a1 1 0 001.23-.543l2-4.5a1 1 0 00-.542-1.334l-5-2A1 1 0 0017 4h-2a1 1 0 00-.993.883l-.011.273C13.93 6.234 13.196 7 12 7c-1.253 0-2-.84-2-2a1 1 0 00-1-1H7a1 1 0 00-.371.072l-5 2a1 1 0 00-.543 1.334l2 4.5a1 1 0 001.23.543zm-.981-4.906L7.193 6h.92l.05.19C8.622 7.821 10.038 9 12 9c2.037 0 3.485-1.271 3.887-3h.92l3.858 1.543-1.21 2.721-2.138-.713A1 1 0 0016 10.5V19H8v-8.5a1 1 0 00-1.316-.949l-2.139.713-1.21-2.721z" clip-rule="evenodd"></path></symbol>
        <symbol id="fresh" xmlns="http://www.w3.org/2000/svg" viewBox="0 0 24 24"><path fill-rule="evenodd" d="M18 4a2 2 0 00-2-2h-3a2 2 0 00-2 2v1.535a4.007 4.007 0 00-1.874 2.467A5.108 5.108 0 009 8l-.217.005A5 5 0 004 13H3a1 1 0 00-.99 1.141l1 7A1 1 0 004 22h16a1 1 0 00.99-.859l1-7A1 1 0 0021 13h-1V9l-.007-.232a4 4 0 00-1.992-3.232L18 4zM4.867 20l-.714-5h15.694l-.714 5H4.867zM16 7h-3a2 2 0 00-1.924 1.45 5.003 5.003 0 012.919 4.318L14 13h4V9a2 2 0 00-1.85-1.995L16 7zm-9.995 5.824A3 3 0 0112 13H6l.005-.176zM16 4h-3v1h3V4zm-1 14v-2H9v2h6z" clip-rule="evenodd"></path></symbol>
        <symbol id="nativeBusiness" xmlns="http://www.w3.org/2000/svg" viewBox="0 0 24 24"><path d="M15.5 1v3l-3 3V4l3-3zM11.5 9v2.984L8.5 9v3l3 3v8.005L7 23l-.5-1C8 22 9 21.395 9 20c0-1.6-1.12-2.72-2.464-4.064C4.52 13.92 2 11.4 2 6h6.5l3 3zM12.5 9v2.984L15.5 9v3l-3 3v8.005L17 23l.5-1C16 22 15 20.895 15 19.5c0-1.6 1.12-2.64 2.464-3.888C19.48 13.74 22 11.4 22 6h-6.5l-3 3zM8.5 4V1l3 3v3l-3-3z"></path></symbol>
        <symbol id="kidsToy" xmlns="http://www.w3.org/2000/svg" viewBox="0 0 24 24"><path fill-rule="evenodd" d="M11.817 4.5a3.5 3.5 0 103.5-3.5 1 1 0 100 2 1.5 1.5 0 11-1.5 1.5 1 1 0 10-2 0zM1 14.5A3.5 3.5 0 004.5 18h.015A8.993 8.993 0 0012 22a8.993 8.993 0 007.485-4h.015a3.5 3.5 0 001.332-6.738 8.954 8.954 0 00-1.4-3.339 1 1 0 10-1.65 1.13 6.955 6.955 0 011.168 3.105 1 1 0 00.817.866 1.5 1.5 0 11-.59 2.941 1 1 0 00-1.084.484A6.996 6.996 0 0112 20a6.996 6.996 0 01-6.093-3.551 1 1 0 00-1.084-.484 1.5 1.5 0 11-.59-2.942 1 1 0 00.817-.865A7.008 7.008 0 019.807 6.35a1 1 0 00-.626-1.9 9.012 9.012 0 00-6.013 6.812A3.502 3.502 0 001 14.5zm10-4a1.5 1.5 0 11-3 0 1.5 1.5 0 013 0zm3.5 1.5a1.5 1.5 0 100-3 1.5 1.5 0 000 3zM12 18a4.997 4.997 0 01-4.307-2.459 1 1 0 011.722-1.017A2.997 2.997 0 0012 16a2.998 2.998 0 002.59-1.485 1 1 0 011.725 1.012A4.997 4.997 0 0112 18z" clip-rule="evenodd"></path></symbol>
        <symbol id="beauty" xmlns="http://www.w3.org/2000/svg" viewBox="0 0 24 24"><path fill-rule="evenodd" d="M16.05 3.25c3.277 0 5.95 2.568 5.95 5.757a5.622 5.622 0 01-1.32 3.616c-.63.755-3.262 3.505-7.964 8.325a1 1 0 01-1.434-.002c-4.639-4.784-7.247-7.506-7.87-8.215A5.627 5.627 0 012 9.007C2 5.818 4.673 3.25 7.95 3.25c1.53 0 2.967.564 4.05 1.539a6.048 6.048 0 014.05-1.539zm3.095 8.091c.552-.66.855-1.475.855-2.334 0-2.066-1.76-3.757-3.95-3.757-1.312 0-2.51.611-3.243 1.612a1 1 0 01-1.614 0C10.46 5.861 9.261 5.25 7.95 5.25 5.76 5.25 4 6.941 4 9.007c0 .891.326 1.733.916 2.405.557.635 2.932 3.117 7.086 7.403 4.194-4.304 6.594-6.817 7.143-7.474zm-10.352.452a1 1 0 011.414 0L12 13.586l4.793-4.793a1 1 0 111.414 1.414l-5.5 5.5a1 1 0 01-1.414 0l-2.5-2.5a1 1 0 010-1.414z" clip-rule="evenodd"></path></symbol>
        <symbol id="homeKitchen" xmlns="http://www.w3.org/2000/svg" viewBox="0 0 24 24"><path fill-rule="evenodd" d="M7 3h10c1.56 0 2.898 1.066 2.994 2.5l.006.167v2.869a3.5 3.5 0 011.001 6.627L21 18a2 2 0 01-2 2v1h-2v-1H7v1H5v-1a2 2 0 01-2-2v-2.837a3.5 3.5 0 011-6.628V5.667c0-1.461 1.28-2.581 2.821-2.662L7 3zm1 11h8v-2l.005-.192A3.501 3.501 0 0118 8.837v-3.17c0-.3-.35-.614-.867-.661L17 5H7c-.543 0-.936.292-.993.592L6 5.667l.001 3.17A3.5 3.5 0 018 12v2zm-5-2a1.5 1.5 0 013 0v3a1 1 0 001 1h10a1 1 0 001-1v-3l.007-.145A1.5 1.5 0 0121 12l-.007.145A1.5 1.5 0 0119.5 13.5H19V18H5v-4.5h-.5A1.5 1.5 0 013 12z" clip-rule="evenodd"></path></symbol>
        <symbol id="bookStationary" xmlns="http://www.w3.org/2000/svg" viewBox="0 0 24 24"><path fill-rule="evenodd" d="M6.293 6.793L5 8.086 3.414 6.5 6.5 3.414 11.086 8 8 11.086 6.414 9.5l1.293-1.293a1 1 0 00-1.414-1.414zm-5 .414L6.586 12.5l-3.28 3.28a.994.994 0 00-.275.474l-1.496 5.483a1 1 0 001.228 1.228l5.483-1.496a.993.993 0 00.474-.274l3.28-3.28 5.293 5.292a1 1 0 001.414 0l4.5-4.5a1 1 0 000-1.414L17.914 12l3.879-3.879a3 3 0 000-4.242L20.62 2.707a3 3 0 00-4.242 0L12.5 6.586 7.207 1.293a1 1 0 00-1.414 0l-4.5 4.5a1 1 0 000 1.414zM6.074 19.99l-1.563-1.563-.586 2.149 2.15-.586zM15.5 6.414L18.086 9 8 19.086 5.414 16.5 15.5 6.414zm4 1.172L16.914 5l.879-.879a1 1 0 011.414 0l1.172 1.172a1 1 0 010 1.414l-.879.879zm-4.5 10.5L13.414 16.5l3.086-3.086L21.086 18 18 21.086 16.414 19.5l1.293-1.293a1 1 0 00-1.414-1.414L15 18.086z" clip-rule="evenodd"></path></symbol>
        <symbol id="sportOutdoor" xmlns="http://www.w3.org/2000/svg" viewBox="0 0 24 24"><path fill-rule="evenodd" d="M12 5.197l1.168-1.752a1 1 0 111.664 1.11L13.202 7l7.63 11.445c.022.034.042.068.06.103.628.148 1.255.311 1.883.49a1 1 0 11-.55 1.924C18.814 19.986 15.406 19.5 12 19.5c-3.406 0-6.814.487-10.225 1.462a1 1 0 01-.55-1.924c.628-.179 1.255-.342 1.883-.49.018-.035.038-.07.06-.103L10.798 7l-1.63-2.445a1 1 0 111.664-1.11L12 5.197zm-6.13 12.8c.897-.145 1.794-.259 2.69-.34.024-.064.054-.127.092-.187l2.5-4a1 1 0 011.696 0l2.5 4c.038.06.068.123.091.187.898.081 1.794.195 2.691.34L12 8.804l-6.13 9.195zm7.147-.483L12 15.887l-1.017 1.627a37.471 37.471 0 012.034 0z" clip-rule="evenodd"></path></symbol>
        <symbol id="searchSearch" xmlns="http://www.w3.org/2000/svg" viewBox="0 0 24 24"><path fill-rule="evenodd" d="M10.5 18a7.5 7.5 0 115.973-2.963l4.369 4.246-1.394 1.434-4.387-4.263A7.467 7.467 0 0110.5 18zm5.5-7.5a5.5 5.5 0 11-11 0 5.5 5.5 0 0111 0z" clip-rule="evenodd"></path></symbol>
        <symbol id="searchHistory" xmlns="http://www.w3.org/2000/svg" viewBox="0 0 24 24"><path fill-rule="evenodd" d="M12 22C6.477 22 2 17.523 2 12S6.477 2 12 2s10 4.477 10 10-4.477 10-10 10zm0-2a8 8 0 100-16 8 8 0 000 16zm1-14v5.586l3.707 3.707-1.414 1.414-4-4A1 1 0 0111 12V6h2z" clip-rule="evenodd"></path></symbol>
        <symbol id="searchPlaceSuggest" xmlns="http://www.w3.org/2000/svg" viewBox="0 0 24 24"><path d="M17 8.414L6.707 18.707l-1.414-1.414L15.586 7H9V5h9a1 1 0 011 1v9h-2V8.414z"></path></symbol>
        <symbol id="categoryOutline" xmlns="http://www.w3.org/2000/svg" viewBox="0 0 24 24"><path fill-rule="evenodd" d="M10 2H3a1 1 0 00-1 1v7a1 1 0 001 1h7a1 1 0 001-1V3a1 1 0 00-1-1zM4 9V4h5v5H4zm17 4a1 1 0 011 1v7a1 1 0 01-1 1h-7a1 1 0 01-1-1v-7a1 1 0 011-1h7zm-3.5-2a4.5 4.5 0 110-9 4.5 4.5 0 010 9zM20 6.5a2.5 2.5 0 11-5 0 2.5 2.5 0 015 0zM6.5 22a4.5 4.5 0 110-9 4.5 4.5 0 010 9zM9 17.5a2.5 2.5 0 11-5 0 2.5 2.5 0 015 0zm6 2.5v-5h5v5h-5z" clip-rule="evenodd"></path></symbol>
        <symbol id="toman" xmlns="http://www.w3.org/2000/svg" viewBox="0 0 14 14"><path fill-rule="evenodd" d="M3.057 1.742L3.821 1l.78.75-.776.741-.768-.749zm3.23 2.48c0 .622-.16 1.111-.478 1.467-.201.221-.462.39-.783.505a3.251 3.251 0 01-1.083.163h-.555c-.421 0-.801-.074-1.139-.223a2.045 2.045 0 01-.9-.738A2.238 2.238 0 011 4.148c0-.059.001-.117.004-.176.03-.55.204-1.158.525-1.827l1.095.484c-.257.532-.397 1-.419 1.403-.002.04-.004.08-.004.12 0 .252.055.458.166.618a.887.887 0 00.5.354c.085.028.178.048.278.06.079.01.16.014.243.014h.555c.458 0 .769-.081.933-.244.14-.139.21-.383.21-.731V2.02h1.2v2.202zm5.433 3.184l-.72-.7.709-.706.735.707-.724.7zm-2.856.308c.542 0 .973.19 1.293.569.297.346.445.777.445 1.293v.364h.18v-.004h.41c.221 0 .377-.028.467-.084.093-.055.14-.14.14-.258v-.069c.004-.243.017-1.044 0-1.115L13 8.05v1.574a1.4 1.4 0 01-.287.863c-.306.405-.804.607-1.495.607h-.627c-.061.733-.434 1.257-1.117 1.573-.267.122-.58.21-.937.265a5.845 5.845 0 01-.914.067v-1.159c.612 0 1.072-.082 1.38-.247.25-.132.376-.298.376-.499h-.515c-.436 0-.807-.113-1.113-.339-.367-.273-.55-.667-.55-1.18 0-.488.122-.901.367-1.24.296-.415.728-.622 1.296-.622zm.533 2.226v-.364c0-.217-.048-.389-.143-.516a.464.464 0 00-.39-.187.478.478 0 00-.396.187.705.705 0 00-.136.449.65.65 0 00.003.067c.008.125.066.22.177.283.093.054.21.08.352.08h.533zM9.5 6.707l.72.7.724-.7L10.209 6l-.709.707zm-6.694 4.888h.03c.433-.01.745-.106.937-.29.024.012.065.035.12.068l.074.039.081.042c.135.073.261.133.379.18.345.146.67.22.977.22a1.216 1.216 0 00.87-.34c.3-.285.449-.714.449-1.286a2.19 2.19 0 00-.335-1.145c-.299-.457-.732-.685-1.3-.685-.502 0-.916.192-1.242.575-.113.132-.21.284-.294.456-.032.062-.06.125-.084.191a.504.504 0 00-.03.078 1.67 1.67 0 00-.022.06c-.103.309-.171.485-.205.53-.072.09-.214.14-.427.147-.123-.005-.209-.03-.256-.076-.057-.054-.085-.153-.085-.297V7l-1.201-.5v3.562c0 .261.048.496.143.703.071.158.168.296.29.413.123.118.266.211.43.28.198.084.42.13.665.136v.001h.036zm2.752-1.014a.778.778 0 00.044-.353.868.868 0 00-.165-.47c-.1-.134-.217-.201-.35-.201-.18 0-.33.103-.447.31-.042.071-.08.158-.114.262a2.434 2.434 0 00-.04.12l-.015.053-.015.046c.142.118.323.216.544.293.18.062.325.092.433.092.044 0 .086-.05.125-.152z" clip-rule="evenodd"></path></symbol>
        <symbol id="productAvailable" xmlns="http://www.w3.org/2000/svg" viewBox="0 0 24 24"><path fill-rule="evenodd" d="M7 19H6a1 1 0 01-1-1V6a1 1 0 011-1h2v7h8V5h2a1 1 0 011 1v12a1 1 0 01-1 1h-1v2h1a3 3 0 003-3V6a3 3 0 00-3-3H6a3 3 0 00-3 3v12a3 3 0 003 3h1v-2zm3-9V5h4v5h-4zm-.293 7.793l1.755 1.755 3.795-4.217 1.486 1.338-4.5 5a1 1 0 01-1.45.038l-2.5-2.5 1.414-1.414z" clip-rule="evenodd"></path></symbol>
        <symbol id="deliveryExpress" xmlns="http://www.w3.org/2000/svg" viewBox="0 0 24 24"><path fill-rule="evenodd" d="M14.17 19H8.83a3.001 3.001 0 01-5.66 0H2a1 1 0 01-1-1v-7.333C1 8.097 3.033 6 5.556 6H9V5a1 1 0 011-1h12a1 1 0 011 1v13a1 1 0 01-1 1h-2.17a3.001 3.001 0 01-5.66 0zm0-2H11V6h10v11h-1.17a3.001 3.001 0 00-5.66 0zM9 17h-.17a3.001 3.001 0 00-5.66 0H3v-3h5v-2H3v-1.333C3 9.187 4.151 8 5.556 8H9v9zm-2 1a1 1 0 11-2 0 1 1 0 012 0zm10 1a1 1 0 100-2 1 1 0 000 2z" clip-rule="evenodd"></path></symbol>
        <symbol id="variationColor" xmlns="http://www.w3.org/2000/svg" viewBox="0 0 20 20"><path d="M0 10C0 4.477 4.477 0 10 0s10 4.477 10 10-4.477 10-10 10S0 15.523 0 10z"></path><path stroke="#030A16" stroke-opacity=".1" d="M.5 10a9.5 9.5 0 1119 0 9.5 9.5 0 01-19 0z"></path></symbol>
        <symbol id="deliveryJet" xmlns="http://www.w3.org/2000/svg" viewBox="0 0 24 24"><path fill-rule="evenodd" d="M11.539 1.083l.224-.054a1 1 0 01.452-.006A6.098 6.098 0 0117 6.98v2.486l2.555 1.703a1 1 0 01.394.516l2 6a1 1 0 01-1.145 1.297L15.9 18H8.099l-4.903.98a1 1 0 01-1.145-1.296l2-6a1 1 0 01.394-.516L7 9.465V6.979a6.104 6.104 0 014.539-5.896zM7 11.868v4.312l-2.507.501 1.346-4.039L7 11.868zM15 10v6H9V6.979a4.099 4.099 0 012.839-3.9L12 3.03l.178.054A4.099 4.099 0 0115 6.98V10zm2 6.18l2.506.501-1.346-4.039-1.16-.773v4.311zM10 9a2 2 0 114 0 2 2 0 01-4 0zm0 13v-3H8v3h2zm6-3v3h-2v-3h2zm-3 4v-4h-2v4h2z" clip-rule="evenodd"></path></symbol>
        <symbol id="unavailableProduct" xmlns="http://www.w3.org/2000/svg" viewBox="0 96 960 960"><path fill-rule="evenodd" d="M286.154 958.306q-29.153 0-49.576-20.422-20.423-20.423-20.423-49.577 0-29.153 20.423-49.576 20.423-20.423 49.576-20.423 29.154 0 49.577 20.423t20.423 49.576q0 29.154-20.423 49.577-20.423 20.422-49.577 20.422Zm387.692 0q-29.154 0-49.577-20.422-20.423-20.423-20.423-49.577 0-29.153 20.423-49.576 20.423-20.423 49.577-20.423 29.153 0 49.576 20.423 20.423 20.423 20.423 49.576 0 29.154-20.423 49.577-20.423 20.422-49.576 20.422ZM480 476q-13.538 0-22.923-9.384-9.384-9.385-9.384-22.923 0-13.538 9.384-22.923 9.385-9.384 22.923-9.384 13.538 0 22.923 9.384 9.384 9.385 9.384 22.923 0 13.538-9.384 22.923Q493.538 476 480 476Zm-29.999-129.999v-200h59.998v200h-59.998ZM286.154 758.306q-39.999 0-60.73-34.499-20.73-34.5-.808-68.884l57.078-102.616-145.539-306.308H60.001v-59.998h114.461l166.923 352.307H622l150.769-272.307 52.691 28.384-148.076 267.306q-9.847 17.693-25.731 27.154-15.884 9.461-35.807 9.461H324l-46.308 84.616q-3.077 4.616-.192 10.001t8.654 5.385h457.691v59.998H286.154Z" clip-rule="evenodd"/></symbol>
        <symbol id="guarantee" xmlns="http://www.w3.org/2000/svg" viewBox="0 0 24 24"><path fill-rule="evenodd" d="M4.725 4.038l7-2a1 1 0 01.55 0l7 2A1 1 0 0120 5v7.938a8 8 0 01-4.03 6.946l-3.474 1.984a1 1 0 01-.992 0L8.03 19.884A8 8 0 014 12.938V5a1 1 0 01.725-.962zM6 5.754v7.184a6 6 0 003.023 5.21l2.977 1.7 2.977-1.7A6 6 0 0018 12.937V5.754L12 4.04 6 5.754zm9 2.539l-3.793 3.793-1.793-1.793L8 11.707l2.5 2.5a1 1 0 001.414 0l4.5-4.5L15 8.293z" clip-rule="evenodd"></path></symbol>
        <symbol id="plus" xmlns="http://www.w3.org/2000/svg" viewBox="0 0 24 24"><path fill-rule="evenodd" d="M20.362 13.877a.738.738 0 00.638-.732v-2.29l-.008-.11a.738.738 0 00-.63-.622l-.1-.007-.16.005-.066-.001-.276.014a5.745 5.745 0 01-4.215-1.68 5.748 5.748 0 01-1.665-4.492L13.88 3.9l.01-.002v-.159l-.008-.11a.739.739 0 00-.63-.621L13.15 3h-2.302l-.1.007a.738.738 0 00-.638.731v.159l.01.002-.001.063a5.748 5.748 0 01-1.665 4.492 5.746 5.746 0 01-4.491 1.666h-.067l-.16-.004-.1.007a.738.738 0 00-.637.732v2.29l.008.11a.738.738 0 00.63.622l.1.007.16-.005.066.001.276-.014a5.745 5.745 0 014.215 1.68 5.748 5.748 0 011.665 4.492l.001.063-.01.002v.159l.008.11a.739.739 0 00.63.621l.1.007h2.302l.1-.007a.738.738 0 00.638-.731v-.159l-.01-.002.001-.063a5.748 5.748 0 011.665-4.492 5.746 5.746 0 014.491-1.666h.067l.16.004.1-.007zM12.06 17.88l-.056.266-.003-.007-.003.014-.056-.273-.081-.322a7.734 7.734 0 00-5.715-5.495L5.835 12l.31-.063a7.737 7.737 0 005.796-5.816l.054-.264.005.004.003-.014.056.273.081.322a7.733 7.733 0 005.715 5.495l.31.063-.31.063a7.737 7.737 0 00-5.796 5.816z" clip-rule="evenodd"></path></symbol>
        <symbol id="localMall" xmlns="http://www.w3.org/2000/svg" viewBox="0 96 960 960"><path fill-rule="evenodd" d="M228.309 939.999q-27.008 0-45.658-18.65-18.65-18.65-18.65-45.658V420.309q0-27.008 18.65-45.658 18.65-18.65 45.658-18.65h79.692q0-71.602 50.265-121.8 50.264-50.198 121.96-50.198t121.735 50.198q50.038 50.198 50.038 121.8h79.692q27.008 0 45.658 18.65 18.65 18.65 18.65 45.658v455.382q0 27.008-18.65 45.658-18.65 18.65-45.658 18.65H228.309Zm0-51.999h503.382q4.616 0 8.463-3.846 3.846-3.847 3.846-8.463V420.309q0-4.616-3.846-8.463-3.847-3.846-8.463-3.846H228.309q-4.616 0-8.463 3.846-3.846 3.847-3.846 8.463v455.382q0 4.616 3.846 8.463 3.847 3.846 8.463 3.846Zm251.917-236.001q71.696 0 121.735-50.198Q651.999 551.602 651.999 480H600q0 50-35 85t-85 35q-50 0-85-35t-35-85h-51.999q0 71.922 50.265 121.961 50.264 50.038 121.96 50.038ZM360 356.001h240q0-50-35-85t-85-35q-50 0-85 35t-35 85ZM216 888V408 888Z" clip-rule="evenodd"/></symbol>
        <symbol id="saveForLater" xmlns="http://www.w3.org/2000/svg" viewBox="0 0 24 24"><path fill-rule="evenodd" d="M9 1H7v1a3 3 0 00-3 3v15a3 3 0 003 3h10a3 3 0 003-3v-1h-2v1a1 1 0 01-1 1H7a1 1 0 01-1-1V5a1 1 0 011-1v1h2V4h2v1h2V4h2v1h2V4a1 1 0 011 1v8h2V5a3 3 0 00-3-3V1h-2v1h-2V1h-2v1H9V1zM8 8h5v2H8V8zm5 4H8v2h5v-2zm-5 4h3v2H8v-2zm7-8a1 1 0 100 2 1 1 0 000-2zm1.414 7H22v2h-5.586l1.293 1.293-1.414 1.414-3-3a1 1 0 010-1.414l3-3 1.414 1.414L16.414 15z" clip-rule="evenodd"></path></symbol>
        <symbol id="trash" xmlns="http://www.w3.org/2000/svg" viewBox="0 0 20 20"><path fill-rule="evenodd" d="M6.666 1.667v1.666h6.667V1.667H6.666zM3.333 5.833V4.167h13.333v1.666H3.333zm10.833.834h1.667v9.166a2.5 2.5 0 01-2.5 2.5H6.666a2.5 2.5 0 01-2.5-2.5V6.667h1.667v9.166c0 .46.373.834.833.834h6.667c.46 0 .833-.373.833-.834V6.667zm-5 0H7.5V15h1.666V6.667zm1.667 0H12.5V15h-1.667V6.667z" clip-rule="evenodd"></path></symbol>
        <symbol id="digipay" xmlns="http://www.w3.org/2000/svg" viewBox="0 0 18 18"><path fill-rule="evenodd" d="M14 4.833A3.333 3.333 0 0010.667 1.5H4v1.111a3.333 3.333 0 003.333 3.333H14v-1.11zm0 3.334V7.056H7.333l-.125.002A3.333 3.333 0 004 10.388V16.5h1.111l.125-.002a3.333 3.333 0 003.208-3.331V11.5h2.223l.125-.002A3.333 3.333 0 0014 8.167z" clip-rule="evenodd"></path></symbol>
        <symbol id="moveToCart" xmlns="http://www.w3.org/2000/svg" viewBox="0 0 24 24"><path fill-rule="evenodd" d="M0 7.014h6.286L5 8.3l1.414 1.414 3-3a1 1 0 000-1.414l-3-3L5 3.714l1.3 1.3H0v2zM12 7V5h6V4a1 1 0 011-1h3v2h-2v11a1 1 0 01-1 1H4a1 1 0 01-.995-.9l-.71-7.097 2.01-.005.6 6.002H18V7h-6zM5 22a2 2 0 110-4 2 2 0 010 4zm13 0a2 2 0 110-4 2 2 0 010 4z" clip-rule="evenodd"></path></symbol>
        <symbol id="starFill" xmlns="http://www.w3.org/2000/svg" viewBox="0 0 24 24"><path d="M11.98 2.1a.455.455 0 00-.414.315L9.426 9.05l-6.97-.014a.455.455 0 00-.268.823l5.648 4.087-2.169 6.628a.455.455 0 00.7.509L12 16.973l5.634 4.11a.455.455 0 00.7-.509l-2.169-6.628 5.648-4.087a.455.455 0 00-.267-.823l-6.97.014-2.144-6.635a.455.455 0 00-.451-.315z"></path></symbol>
        <symbol id="ads" xmlns="http://www.w3.org/2000/svg" viewBox="0 0 24 24"><path fill-rule="evenodd" d="M20.198 1.408l2.779 15.757-4.803.847-2.737-.302a4 4 0 01-7.972-.207l-.006-.205-.005-.442-4.694.827-1.737-9.848 4.782-.843 9.591-4.737 4.802-.847zM9.456 17.05l.003.238a2 2 0 003.99.203l-3.993-.441zm7.15-12.979l1.97-.346 2.084 11.818-1.97.347L16.606 4.07zm-1.898.753L7.236 8.516l1.129 6.402 8.284.913-1.94-11.007zM3.34 9.458l1.97-.348 1.042 5.91-1.97.346L3.34 9.458z" clip-rule="evenodd"></path></symbol>
        <symbol id="chevronDown" xmlns="http://www.w3.org/2000/svg" viewBox="0 0 18 18"><path d="M5.78 6.97L4.72 8.03l3.75 3.75a.75.75 0 001.06 0l3.75-3.75-1.06-1.06L9 10.19 5.78 6.97z"></path></symbol>
        <symbol id="comingSoon" xmlns="http://www.w3.org/2000/svg" viewBox="0 0 24 24"><path fill-rule="evenodd" d="M2.585 15.384a1 1 0 111.882-.677A8.003 8.003 0 0011.997 20a8 8 0 100-16 1 1 0 110-2c5.523 0 10 4.477 10 10s-4.477 10-10 10a10.003 10.003 0 01-9.412-6.616zM8.662 2.57a1 1 0 11.667 1.885 7.95 7.95 0 00-1.114.494 1 1 0 11-.947-1.762 9.95 9.95 0 011.394-.617zM5.804 5.39a1 1 0 00-1.41.11 9.95 9.95 0 00-.899 1.232 1 1 0 101.701 1.052 7.95 7.95 0 01.718-.984 1 1 0 00-.11-1.41zm-3.64 4.783a1 1 0 011.966.365A7.95 7.95 0 004 11.75a1 1 0 01-2-.06c.016-.51.07-1.016.163-1.517zM12.996 12V6h-2v5.307l-3.35 1.257.702 1.872 4-1.5a1 1 0 00.648-.936z" clip-rule="evenodd"></path></symbol>
        <symbol id="specialAmazing" xmlns="http://www.w3.org/2000/svg" viewBox="0 0 22 22"><path d="M16 1.5a1.5 1.5 0 11-3 0 1.5 1.5 0 013 0zM22 7.5a1.5 1.5 0 11-3 0 1.5 1.5 0 013 0zM15.207 8.207l6.5-6.5L20.293.293l-6.5 6.5 1.414 1.414z"></path><path fill-rule="evenodd" d="M5.793 2.293a1 1 0 011.414 0l12.5 12.5a1 1 0 01-1.414 1.414l-.553-.552-1.829.653c.058.263.089.536.089.816C16 19.304 14.169 21 12 21c-1.502 0-2.841-.813-3.524-2.037l-2.665.952a1 1 0 01-1.518 1.292l-3.5-3.5a1 1 0 011.292-1.518l4.26-11.93-.552-.552a1 1 0 010-1.414zm4.625 15.977c.359.438.922.73 1.582.73 1.145 0 2-.88 2-1.876 0-.044-.002-.088-.005-.132l-3.577 1.278zm-6.158.075l-.605-.605L7.91 5.824l8.265 8.266L4.26 18.345z" clip-rule="evenodd"></path></symbol>






        <symbol id="demands" xmlns="http://www.w3.org/2000/svg" viewBox="0 0 18 18"><path fill-rule="evenodd" d="M17.3725 9.31409H9.94201C9.77548 9.31409 9.61576 9.38024 9.498 9.498C9.38024 9.61576 9.31409 9.77548 9.31409 9.94201V17.3725C9.31409 17.539 9.38024 17.6987 9.498 17.8165C9.61576 17.9342 9.77548 18.0004 9.94201 18.0004H15.9575C16.499 17.9993 17.018 17.7837 17.4008 17.4008C17.7837 17.018 17.9993 16.499 18.0004 15.9575V9.94201C18.0004 9.77548 17.9342 9.61576 17.8165 9.498C17.6987 9.38024 17.539 9.31409 17.3725 9.31409ZM16.7445 15.9575C16.7445 16.1663 16.6616 16.3664 16.514 16.514C16.3664 16.6616 16.1663 16.7445 15.9575 16.7445H10.5699V10.5699H16.7445V15.9575Z" clip-rule="evenodd"/><path fill-rule="evenodd" d="M15.9575 0H9.94201C9.77548 0 9.61576 0.0661561 9.498 0.183915C9.38024 0.301674 9.31409 0.461389 9.31409 0.627925V8.05837C9.31409 8.2249 9.38024 8.38462 9.498 8.50238C9.61576 8.62014 9.77548 8.68629 9.94201 8.68629H17.3725C17.539 8.68629 17.6987 8.62014 17.8165 8.50238C17.9342 8.38462 18.0004 8.2249 18.0004 8.05837V2.04285C17.9993 1.50139 17.7837 0.982427 17.4008 0.599558C17.018 0.216689 16.499 0.00110615 15.9575 0ZM16.7445 7.43044H10.5699V1.25585H15.9575C16.1663 1.25585 16.3664 1.33877 16.514 1.48636C16.6616 1.63395 16.7445 1.83412 16.7445 2.04285V7.43044Z" clip-rule="evenodd"/><path fill-rule="evenodd" d="M8.05837 9.31409H0.627925C0.461389 9.31409 0.301674 9.38024 0.183915 9.498C0.0661561 9.61576 0 9.77548 0 9.94201V15.9575C0.00110615 16.499 0.216689 17.018 0.599558 17.4008C0.982427 17.7837 1.50139 17.9993 2.04285 18.0004H8.05837C8.2249 18.0004 8.38462 17.9342 8.50238 17.8165C8.62014 17.6987 8.68629 17.539 8.68629 17.3725V9.94201C8.68629 9.77548 8.62014 9.61576 8.50238 9.498C8.38462 9.38024 8.2249 9.31409 8.05837 9.31409ZM7.43044 16.7445H2.04285C1.83412 16.7445 1.63395 16.6616 1.48636 16.514C1.33877 16.3664 1.25585 16.1663 1.25585 15.9575V10.5699H7.43044V16.7445Z" clip-rule="evenodd"/><path fill-rule="evenodd" d="M8.05837 0H2.04285C1.50139 0.00110615 0.982427 0.216689 0.599558 0.599558C0.216689 0.982427 0.00110615 1.50139 0 2.04285V8.05837C0 8.2249 0.0661561 8.38462 0.183915 8.50238C0.301674 8.62014 0.461389 8.68629 0.627925 8.68629H8.05837C8.2249 8.68629 8.38462 8.62014 8.50238 8.50238C8.62014 8.38462 8.68629 8.2249 8.68629 8.05837V0.627925C8.68629 0.461389 8.62014 0.301674 8.50238 0.183915C8.38462 0.0661561 8.2249 0 8.05837 0ZM7.43044 7.43044H1.25585V2.04285C1.25585 1.83412 1.33877 1.63395 1.48636 1.48636C1.63395 1.33877 1.83412 1.25585 2.04285 1.25585H7.43044V7.43044Z" clip-rule="evenodd"/></symbol>
        <symbol id="transaction" xmlns="http://www.w3.org/2000/svg" viewBox="0 0 21 17"><path fill-rule="evenodd" d="M2.54791 7C1.6914 7 1 7.67 1 8.5C1 9.33 1.6914 10 2.54791 10C3.40442 10 4.09582 9.33 4.09582 8.5C4.09582 7.67 3.40442 7 2.54791 7ZM2.54791 1C1.6914 1 1 1.67 1 2.5C1 3.33 1.6914 4 2.54791 4C3.40442 4 4.09582 3.33 4.09582 2.5C4.09582 1.67 3.40442 1 2.54791 1ZM2.54791 13C1.6914 13 1 13.68 1 14.5C1 15.32 1.70172 16 2.54791 16C3.3941 16 4.09582 15.32 4.09582 14.5C4.09582 13.68 3.40442 13 2.54791 13ZM6.67568 15.5H19.059C19.6265 15.5 20.0909 15.05 20.0909 14.5C20.0909 13.95 19.6265 13.5 19.059 13.5H6.67568C6.10811 13.5 5.64373 13.95 5.64373 14.5C5.64373 15.05 6.10811 15.5 6.67568 15.5ZM6.67568 9.5H19.059C19.6265 9.5 20.0909 9.05 20.0909 8.5C20.0909 7.95 19.6265 7.5 19.059 7.5H6.67568C6.10811 7.5 5.64373 7.95 5.64373 8.5C5.64373 9.05 6.10811 9.5 6.67568 9.5ZM5.64373 2.5C5.64373 3.05 6.10811 3.5 6.67568 3.5H19.059C19.6265 3.5 20.0909 3.05 20.0909 2.5C20.0909 1.95 19.6265 1.5 19.059 1.5H6.67568C6.10811 1.5 5.64373 1.95 5.64373 2.5Z" clip-rule="evenodd"/></symbol>
        <symbol id="questions" xmlns="http://www.w3.org/2000/svg" viewBox="0 0 18 18"><path fill-rule="evenodd" d="M9.00001 18C7.21997 18 5.47991 17.4722 3.99987 16.4832C2.51983 15.4943 1.36628 14.0887 0.685088 12.4442C0.00389953 10.7996 -0.17433 8.99002 0.172937 7.24419C0.520204 5.49836 1.37737 3.89472 2.63604 2.63604C3.89472 1.37737 5.49836 0.520204 7.24419 0.172937C8.99002 -0.17433 10.7996 0.00389953 12.4442 0.685088C14.0887 1.36628 15.4943 2.51983 16.4832 3.99987C17.4722 5.47991 18 7.21997 18 9.00001C18 11.387 17.0518 13.6761 15.364 15.364C13.6761 17.0518 11.387 18 9.00001 18ZM9.00001 1.49907C7.51646 1.49907 6.06623 1.93899 4.83271 2.7632C3.59918 3.58742 2.63777 4.7589 2.07004 6.12952C1.50231 7.50014 1.35377 9.00833 1.6432 10.4634C1.93262 11.9184 2.64702 13.2549 3.69604 14.304C4.74507 15.353 6.08161 16.0674 7.53664 16.3568C8.99168 16.6462 10.4999 16.4977 11.8705 15.93C13.2411 15.3622 14.4126 14.4008 15.2368 13.1673C16.061 11.9338 16.5009 10.4836 16.5009 9.00001C16.498 7.01155 15.7067 5.10538 14.3007 3.69933C12.8946 2.29327 10.9885 1.50204 9.00001 1.49907Z" clip-rule="evenodd"/><path fill-rule="evenodd" d="M9.0001 12.7488C8.80143 12.7488 8.61085 12.6701 8.4701 12.5299C8.32935 12.3897 8.24991 12.1994 8.24916 12.0007C8.26089 11.3245 8.44534 10.6626 8.78501 10.0777C9.12467 9.49293 9.60825 9.0047 10.1898 8.65946C10.5936 8.4089 10.9077 8.03692 11.087 7.59685C11.2664 7.15678 11.3018 6.67122 11.1882 6.20978C11.0596 5.67249 10.7378 5.20129 10.2842 4.88599C9.83051 4.57068 9.27671 4.43331 8.72828 4.50003C8.17986 4.56676 7.67516 4.83293 7.31035 5.24782C6.94554 5.66271 6.74612 6.19732 6.7501 6.74978C6.75637 6.85207 6.74164 6.95456 6.7068 7.05094C6.67197 7.14732 6.61778 7.23556 6.54756 7.31021C6.47735 7.38486 6.3926 7.44435 6.29852 7.48501C6.20445 7.52567 6.10305 7.54665 6.00057 7.54665C5.89809 7.54665 5.79669 7.52567 5.70262 7.48501C5.60855 7.44435 5.52379 7.38486 5.45358 7.31021C5.38336 7.23556 5.32917 7.14732 5.29434 7.05094C5.25951 6.95456 5.24477 6.85207 5.25104 6.74978C5.24924 6.18646 5.37479 5.63002 5.6183 5.12205C5.86182 4.61408 6.21699 4.16772 6.65729 3.81634C7.10404 3.46042 7.62569 3.21046 8.18299 3.08526C8.7403 2.96006 9.31874 2.96289 9.87479 3.09353C10.5957 3.26362 11.2501 3.64327 11.7555 4.18465C12.261 4.72602 12.5949 5.4049 12.7153 6.13574C12.8356 6.86658 12.7368 7.61667 12.4316 8.29151C12.1263 8.96634 11.6281 9.53572 10.9998 9.9279C10.6347 10.1385 10.3295 10.439 10.1134 10.8008C9.89729 11.1627 9.77738 11.5738 9.7651 11.9951C9.76549 12.0951 9.74589 12.1943 9.70744 12.2866C9.669 12.379 9.61248 12.4627 9.54122 12.5329C9.46995 12.6032 9.38537 12.6584 9.29245 12.6955C9.19953 12.7326 9.10013 12.7507 9.0001 12.7488Z" clip-rule="evenodd"/><path fill-rule="evenodd" d="M9.00027 15.0019C9.415 15.0019 9.7512 14.6657 9.7512 14.2509C9.7512 13.8362 9.415 13.5 9.00027 13.5C8.58553 13.5 8.24933 13.8362 8.24933 14.2509C8.24933 14.6657 8.58553 15.0019 9.00027 15.0019Z" clip-rule="evenodd"/></symbol>
        <symbol id="profile" xmlns="http://www.w3.org/2000/svg" viewBox="0 0 18 18"><path fill-rule="evenodd" d="M11.637 9.29896C12.4285 8.73862 13.0212 7.94099 13.3293 7.02147C13.6375 6.10196 13.6451 5.10826 13.3511 4.18413C13.0571 3.26 12.4767 2.45337 11.6939 1.88095C10.9111 1.30853 9.96643 1 8.99666 1C8.02689 1 7.08226 1.30853 6.29945 1.88095C5.51664 2.45337 4.93625 3.26 4.64224 4.18413C4.34822 5.10826 4.35585 6.10196 4.664 7.02147C4.97215 7.94099 5.56485 8.73862 6.35635 9.29896C4.81285 9.74878 3.45667 10.6866 2.49102 11.972C1.52536 13.2574 1.00223 14.8211 1 16.4288C1 16.5803 1.06018 16.7256 1.1673 16.8327C1.27441 16.9398 1.4197 17 1.57119 17H16.422C16.5735 17 16.7188 16.9398 16.8259 16.8327C16.933 16.7256 16.9932 16.5803 16.9932 16.4288C16.991 14.8211 16.4679 13.2574 15.5022 11.9721C14.5366 10.6867 13.1804 9.7488 11.637 9.29896ZM5.56949 5.57629C5.56949 4.89847 5.77048 4.23587 6.14706 3.67228C6.52363 3.1087 7.05888 2.66944 7.6851 2.41005C8.31132 2.15066 9.0004 2.08279 9.6652 2.21502C10.33 2.34726 10.9406 2.67366 11.4199 3.15295C11.8992 3.63224 12.2256 4.24289 12.3579 4.90769C12.4901 5.57248 12.4222 6.26156 12.1628 6.88779C11.9035 7.51401 11.4642 8.04925 10.9006 8.42583C10.337 8.8024 9.67442 9.0034 8.9966 9.0034C8.08799 9.00237 7.21689 8.64096 6.57441 7.99848C5.93192 7.35599 5.57052 6.4849 5.56949 5.57629ZM2.16807 15.8576C2.31242 14.2973 3.03386 12.847 4.19118 11.7906C5.34851 10.7341 6.85842 10.1476 8.42541 10.1458H9.56779C11.1348 10.1476 12.6447 10.7341 13.802 11.7906C14.9593 12.847 15.6808 14.2973 15.8251 15.8576H2.16807Z" clip-rule="evenodd"/></symbol>
        <symbol id="about" xmlns="http://www.w3.org/2000/svg" viewBox="0 0 19 19"><path stroke-width="0.3" fill-rule="evenodd" d="M9.49999 1C7.81885 1 6.17546 1.49852 4.77765 2.43251C3.37983 3.36651 2.29037 4.69403 1.64702 6.2472C1.00368 7.80037 0.835355 9.50944 1.16333 11.1583C1.49131 12.8071 2.30086 14.3217 3.4896 15.5104C4.67835 16.6992 6.19291 17.5087 7.84174 17.8367C9.49058 18.1646 11.1996 17.9963 12.7528 17.353C14.306 16.7096 15.6335 15.6202 16.5675 14.2223C17.5015 12.8245 18 11.1811 18 9.49999C17.9975 7.24643 17.1011 5.0859 15.5076 3.4924C13.9141 1.89889 11.7535 1.00254 9.49999 1ZM9.49999 16.3217C8.15079 16.3217 6.83189 15.9216 5.71007 15.172C4.58825 14.4224 3.7139 13.357 3.19758 12.1105C2.68127 10.864 2.54618 9.49243 2.80939 8.16915C3.07261 6.84587 3.72231 5.63037 4.67634 4.67634C5.63037 3.72231 6.84588 3.0726 8.16915 2.80939C9.49243 2.54617 10.864 2.68126 12.1105 3.19758C13.357 3.7139 14.4224 4.58825 15.172 5.71007C15.9216 6.83188 16.3217 8.15079 16.3217 9.49999C16.3196 11.3086 15.6003 13.0425 14.3214 14.3214C13.0425 15.6003 11.3086 16.3196 9.49999 16.3217Z" clip-rule="evenodd"/><path stroke-width="0.3" fill-rule="evenodd" d="M9.13129 7.00793C9.75884 7.00793 10.2676 6.4992 10.2676 5.87164C10.2676 5.24409 9.75884 4.73535 9.13129 4.73535C8.50373 4.73535 7.995 5.24409 7.995 5.87164C7.995 6.4992 8.50373 7.00793 9.13129 7.00793Z" clip-rule="evenodd"/><path stroke-width="0.3" fill-rule="evenodd" d="M8.38781 8.0258C8.23154 8.05353 8.09003 8.13539 7.98808 8.25704C7.88614 8.37868 7.83028 8.53233 7.8303 8.69104C7.83028 8.77975 7.84773 8.86759 7.88167 8.94955C7.91561 9.03152 7.96536 9.10599 8.02809 9.16872C8.09082 9.23144 8.16529 9.2812 8.24725 9.31514C8.32921 9.34907 8.41706 9.36653 8.50577 9.36651H8.57272V13.1082H8.21135C8.05806 13.1082 7.91105 13.1691 7.80265 13.2775C7.69426 13.3859 7.63336 13.5329 7.63336 13.6862C7.63336 13.8395 7.69426 13.9865 7.80265 14.0949C7.91105 14.2033 8.05806 14.2642 8.21135 14.2642H10.7892C10.9425 14.2642 11.0895 14.2033 11.1979 14.0949C11.3063 13.9865 11.3672 13.8395 11.3672 13.6862C11.3672 13.5329 11.3063 13.3859 11.1979 13.2775C11.0895 13.1691 10.9425 13.1082 10.7892 13.1082H10.4317V8.33179C10.4318 8.24559 10.4126 8.16046 10.3758 8.08253C10.339 8.0046 10.2853 7.93581 10.2187 7.88109C10.1521 7.82638 10.0742 7.78711 9.9906 7.76611C9.907 7.74511 9.81979 7.7429 9.73523 7.75964C9.15205 7.87511 8.41094 8.02174 8.38781 8.0258Z" clip-rule="evenodd"/></symbol>
        <symbol id="help" xmlns="http://www.w3.org/2000/svg" viewBox="0 -960 960 960"><path fill-rule="evenodd" d="M479.56-255.386q17.132 0 28.94-11.829 11.807-11.829 11.807-28.961 0-17.132-11.829-28.939-11.829-11.808-28.961-11.808-17.132 0-28.939 11.829-11.808 11.829-11.808 28.961 0 17.132 11.829 28.94 11.829 11.807 28.961 11.807Zm-28.329-143.23h56.307q.769-29.538 8.654-47.192 7.884-17.653 38.269-46.807 26.384-26.385 40.423-48.731 14.038-22.346 14.038-52.779 0-51.643-37.114-80.682-37.115-29.038-87.808-29.038-50.076 0-82.884 26.731-32.807 26.73-46.807 62.96l51.383 20.615q7.308-19.923 25-38.807 17.693-18.885 52.539-18.885 35.462 0 52.423 19.424 16.962 19.423 16.962 42.731 0 20.384-11.616 37.307-11.615 16.923-29.615 32.693-39.384 35.538-49.769 56.692-10.385 21.154-10.385 63.768Zm28.836 298.615q-78.836 0-148.204-29.92-69.369-29.92-120.682-81.21-51.314-51.291-81.247-120.629-29.933-69.337-29.933-148.173t29.92-148.204q29.92-69.369 81.21-120.682 51.291-51.314 120.629-81.247 69.337-29.933 148.173-29.933t148.204 29.92q69.369 29.92 120.682 81.21 51.314 51.291 81.247 120.629 29.933 69.337 29.933 148.173t-29.92 148.204q-29.92 69.369-81.21 120.682-51.291 51.314-120.629 81.247-69.337 29.933-148.173 29.933Z" clip-rule="evenodd"/></symbol>
        <symbol id="bell" xmlns="http://www.w3.org/2000/svg" viewBox="0 -960 960 960"><path fill-rule="evenodd" d="M180.001-204.616v-59.998h72.308v-298.463q0-80.692 49.807-142.692 49.808-62 127.885-79.307v-24.923q0-20.833 14.57-35.416 14.57-14.584 35.384-14.584t35.429 14.584q14.615 14.583 14.615 35.416v24.923q78.077 17.307 127.885 79.307 49.807 62 49.807 142.692v298.463h72.308v59.998H180.001ZM479.932-92.309q-29.855 0-51.047-21.24-21.192-21.24-21.192-51.067h144.614q0 29.923-21.26 51.115-21.26 21.192-51.115 21.192Z" clip-rule="evenodd"/></symbol>
        <symbol id="hamburgerMenu" xmlns="http://www.w3.org/2000/svg" viewBox="0 -960 960 960"><path fill-rule="evenodd" d="M164.001-278.616v-51.999h631.998v51.999H164.001Zm0-175.385v-51.998h631.998v51.998H164.001Zm0-175.384v-51.999h631.998v51.999H164.001Z" clip-rule="evenodd"/></symbol>
        <symbol id="arrowLeft" xmlns="http://www.w3.org/2000/svg" viewBox="0 0 24 24"><path fill-rule="evenodd" d="M11.293 19.707l1.414-1.414L7.414 13H20v-2H7.414l5.293-5.293-1.414-1.414-7 7a1 1 0 000 1.414l7 7z" clip-rule="evenodd"/></symbol>
        <symbol id="dot" xmlns="http://www.w3.org/2000/svg" viewBox="0 0 12 12"><circle cx="6" cy="6" r="4" stroke="#087E8B" stroke-width="4"/></symbol>
        <symbol id="money" xmlns="http://www.w3.org/2000/svg" viewBox="0 0 48 32"><path fill-rule="evenodd" d="M0 8V4C0 1.792 1.792 0 4 0H44C46.208 0 48 1.792 48 4V8H0ZM48 14V28C48 30.208 46.208 32 44 32H4C1.792 32 0 30.208 0 28V14H48ZM18 24H6V26H18V24ZM24 20H6V22H24V20ZM42 20H36V22H42V20Z" clip-rule="evenodd"/></symbol>
        <symbol id="need" xmlns="http://www.w3.org/2000/svg" viewBox="0 0 51 50"><path fill-rule="evenodd" d="M34 1.51312C34 1.91256 34.1503 2.29571 34.418 2.57856C34.6857 2.86141 35.0488 3.02087 35.4279 3.022C38.7972 3.02536 42.0277 4.43695 44.4105 6.94706C46.7933 9.45716 48.1339 12.8608 48.1382 16.4112C48.1279 16.6158 48.1572 16.8204 48.2244 17.0127C48.2916 17.2049 48.3953 17.3808 48.5291 17.5294C48.6629 17.6781 48.824 17.7965 49.0026 17.8774C49.1813 17.9583 49.3737 18 49.5681 18C49.7625 18 49.9549 17.9583 50.1335 17.8774C50.3122 17.7965 50.4733 17.6781 50.6071 17.5294C50.7409 17.3808 50.8445 17.2049 50.9117 17.0127C50.9789 16.8204 51.0083 16.6158 50.998 16.4112C50.9948 12.0604 49.3535 7.88878 46.4343 4.81194C43.5152 1.7351 39.5567 0.00448979 35.4279 1.89495e-10C35.2397 -3.14695e-06 35.0534 0.0391946 34.8796 0.115339C34.7059 0.191484 34.5481 0.303074 34.4154 0.443692C34.2827 0.58431 34.1777 0.751182 34.1064 0.934713C34.0351 1.11824 33.999 1.31481 34 1.51312ZM50.1895 16.4112C50.1895 16.5877 50.123 16.7569 50.0046 16.8817C49.8861 17.0065 49.7255 17.0766 49.558 17.0766C49.3905 17.0766 49.2299 17.0065 49.1115 16.8817C48.9931 16.7569 48.9265 16.5877 48.9265 16.4112C48.9223 12.6393 47.499 9.02306 44.9687 6.35514C42.4383 3.68721 39.0074 2.18528 35.4279 2.17855C35.345 2.17855 35.2629 2.16134 35.1863 2.1279C35.1096 2.09446 35.04 2.04544 34.9814 1.98365C34.9227 1.92186 34.8762 1.8485 34.8445 1.76777C34.8128 1.68703 34.7964 1.6005 34.7964 1.51312C34.7964 1.42573 34.8128 1.3392 34.8445 1.25847C34.8762 1.17773 34.9227 1.10438 34.9814 1.04259C35.04 0.980795 35.1096 0.931779 35.1863 0.898338C35.2629 0.864897 35.345 0.847685 35.4279 0.847685C39.3424 0.854415 43.0945 2.49657 45.8617 5.41407C48.6289 8.33158 50.1853 12.2863 50.1895 16.4112Z" clip-rule="evenodd"/><path fill-rule="evenodd" d="M42.9514 16.6495C42.9721 17.0141 43.1417 17.3574 43.4253 17.6087C43.7089 17.8599 44.0848 18 44.4757 18C44.8665 18 45.2425 17.8599 45.5261 17.6087C45.8097 17.3574 45.9793 17.0141 46 16.6495C45.9977 13.8269 44.7968 11.1205 42.6609 9.12433C40.525 7.12812 37.6285 6.00519 34.6073 6.002C34.4004 5.99174 34.1933 6.02097 33.9988 6.08791C33.8043 6.15484 33.6265 6.25807 33.4761 6.39132C33.3257 6.52456 33.2059 6.68503 33.1241 6.86293C33.0422 7.04083 33 7.23244 33 7.42607C33 7.61971 33.0422 7.81132 33.1241 7.98922C33.2059 8.16712 33.3257 8.32758 33.4761 8.46083C33.6265 8.59407 33.8043 8.69731 33.9988 8.76424C34.1933 8.83118 34.4004 8.8604 34.6073 8.85014C36.8204 8.85227 38.942 9.67479 40.5065 11.1371C42.0709 12.5994 42.9502 14.582 42.9514 16.6495ZM33.947 7.43609C33.947 7.26929 34.0179 7.10932 34.1442 6.99138C34.2704 6.87343 34.4417 6.80717 34.6202 6.80717C37.4159 6.81141 40.0957 7.85112 42.0722 9.69836C44.0487 11.5456 45.1605 14.0496 45.1639 16.6615C45.1639 16.8283 45.093 16.9883 44.9667 17.1062C44.8405 17.2242 44.6692 17.2904 44.4907 17.2904C44.3122 17.2904 44.1409 17.2242 44.0147 17.1062C43.8884 16.9883 43.8175 16.8283 43.8175 16.6615C43.8175 14.3794 42.8472 12.1909 41.1199 10.5772C39.3927 8.96353 37.05 8.05699 34.6073 8.05699C34.5186 8.05699 34.4307 8.04059 34.3487 8.00874C34.2668 7.97688 34.1924 7.9302 34.1298 7.87137C34.0672 7.81255 34.0177 7.74274 33.9842 7.66598C33.9506 7.58921 33.9336 7.507 33.9341 7.42407L33.947 7.43609Z" clip-rule="evenodd"/><path fill-rule="evenodd" d="M29.0909 17C25.2727 17 21.9091 18.925 20 21.95C18.0909 18.925 14.7273 17 10.9091 17C4.90909 17 0 21.95 0 28C0 38.9083 20 50 20 50C20 50 40 39 40 28C40 21.95 35.0909 17 29.0909 17Z" clip-rule="evenodd"/></symbol>
        <symbol id="other" xmlns="http://www.w3.org/2000/svg" viewBox="0 0 62 40"><path fill-rule="evenodd" d="M27.0898 0.385986C25.0849 0.385986 23.3187 1.45804 22.3163 3.1427C21.3138 1.45804 19.5476 0.385986 17.5428 0.385986C14.3922 0.385986 11.8145 3.1427 11.8145 6.51202C11.8145 12.587 22.3163 18.7641 22.3163 18.7641C22.3163 18.7641 32.8181 12.6381 32.8181 6.51202C32.8181 3.1427 30.2404 0.385986 27.0898 0.385986Z" clip-rule="evenodd"/><path fill-rule="evenodd" d="M4.48227e-05 19.5364C0.570956 20.1558 1.25047 20.6903 1.87275 21.2541C2.62418 21.9351 3.39323 22.5926 4.17108 23.2413C5.6167 24.445 7.09168 25.6122 8.54464 26.8086C8.82936 26.0764 9.44577 25.4628 10.0871 25.0381C11.0602 24.3923 12.2358 24.0614 13.4201 23.8886C12.6863 22.944 11.4652 22.5531 10.4085 22.0859C9.17719 21.5426 8.19241 20.6874 7.13864 19.8718C6.08488 19.0561 4.97094 18.3385 3.62365 18.2404C2.36588 18.1496 0.820456 18.5099 4.48227e-05 19.5364Z" clip-rule="evenodd"/><path fill-rule="evenodd" d="M1.56447 16.9883C1.6628 17.2973 1.88882 17.5741 2.07227 17.8406C2.42385 17.7715 2.77992 17.7275 3.13778 17.7088C4.62597 17.6239 5.95418 18.3341 7.11361 19.1893C8.27305 20.0445 9.31507 21.0286 10.6521 21.6173C11.8922 22.165 13.2234 22.6233 14.0071 23.8051V23.8139C14.396 23.7743 14.782 23.748 15.1577 23.7319C15.2854 23.7319 15.4146 23.7216 15.5423 23.7187C14.6617 22.7654 13.5639 22.0551 12.4602 21.3757C11.2492 20.6387 10.0847 19.8284 8.97311 18.9492C7.85771 18.0529 6.71588 17.1128 5.35685 16.6061C4.16512 16.1653 2.53311 16.0189 1.56447 16.9883Z" clip-rule="evenodd"/><path fill-rule="evenodd" d="M6.01142 16.2899C7.05197 16.7527 7.98833 17.4805 8.86451 18.1775C9.44423 18.6388 10.0181 19.1118 10.6154 19.5511C11.245 20.008 11.9143 20.4122 12.5762 20.8207C13.897 21.6393 15.2531 22.4931 16.2453 23.7158C17.2198 23.7158 18.1928 23.7891 19.1659 23.8623C18.3029 22.9998 17.2888 22.2998 16.2981 21.5866C15.1858 20.7563 14.1274 19.8563 13.1295 18.8921C12.1344 17.9637 11.0748 17.066 9.79205 16.5682C8.58493 16.1143 7.27221 16.0177 6.01142 16.2899Z" clip-rule="evenodd"/><path fill-rule="evenodd" d="M22.3183 29.7503C22.3709 29.7463 22.423 29.7375 22.4739 29.724C22.8222 29.6918 23.1705 29.6654 23.5188 29.6449L24.3994 29.6024C24.4126 29.5936 24.5256 29.6141 24.5359 29.6024C25.0085 29.5907 25.4806 29.5941 25.9522 29.6127L26.4512 29.6405C26.8866 29.6678 27.321 29.7118 27.7545 29.7723C29.7007 30.0537 31.5893 30.6434 33.3491 31.5193C33.6558 31.6658 33.9244 31.2133 33.6177 31.0624C31.6618 30.0811 29.5487 29.4492 27.3743 29.1953C25.7061 29.0247 24.0247 29.0247 22.3565 29.1953C22.325 29.1956 22.2937 29.1981 22.2625 29.2026C22.016 29.2275 21.7709 29.2539 21.5287 29.2817C19.8908 29.4736 18.2691 29.7811 16.6254 29.9261C14.9816 30.071 13.2234 30.1106 11.6354 29.56C10.3967 29.1309 8.57536 28.5349 8.97749 26.9577C9.35173 25.4362 11.0454 25.1155 12.4308 24.7275C14.2771 24.2047 16.2115 24.1754 18.1165 24.2266C20.0215 24.2779 21.9059 23.9338 23.7992 23.8854C25.5823 23.8386 27.3963 23.1371 28.9623 22.2351C28.9826 22.2271 29.0018 22.2168 29.0196 22.2043L29.046 22.1868H29.0533C29.0594 22.1832 29.0653 22.1793 29.0709 22.175C31.6496 20.3973 33.8701 19.2139 37.1473 19.1114C38.8733 19.0572 42.699 20.0943 43.9761 20.7331C45.2888 21.3897 45.9452 22.175 45.9452 22.175C46.7818 22.1926 49.7017 24.7275 50.5397 24.7275C51.8525 25.9842 55.9252 25.9332 57.7597 26.6405C59.5206 27.3134 60.4545 26.8752 62 27.9531L55.8671 37.0942C55.4421 36.7822 54.9969 36.4985 54.5345 36.2449C52.8892 35.3451 51.0357 34.8931 49.16 34.9343C47.2271 34.9606 45.2898 35.3048 43.4098 35.7324C41.3081 36.2112 39.2314 36.7897 37.1473 37.3432C35.0633 37.8967 32.9866 38.4137 30.8717 38.7695C28.8244 39.1122 26.6346 39.3143 24.5873 38.8544C24.5679 38.8507 24.5483 38.8482 24.5286 38.8471C22.5869 37.6888 20.9754 36.0941 19.3786 34.514C18.5817 33.7247 17.7863 32.9339 16.9438 32.1959C16.2966 31.6277 15.623 31.0244 14.8891 30.5689C16.9306 30.5689 18.9985 30.153 21.0151 29.888L22.3183 29.7503Z" clip-rule="evenodd"/><path fill-rule="evenodd" d="M19.0162 22.8028H18.9714V22.7654L19.0162 22.8028Z" clip-rule="evenodd"/></symbol>






    </defs>
</svg>



